<svg width="42" height="42" viewBox="0 0 42 42" fill="none" xmlns="http://www.w3.org/2000/svg">
<path d="M24.5 33.25H17.5C13.787 33.25 10.226 31.775 7.60051 29.1495C4.975 26.524 3.5 22.963 3.5 19.25V10.5H10.5V19.25C10.5 21.1065 11.2375 22.887 12.5503 24.1997C13.863 25.5125 15.6435 26.25 17.5 26.25V10.5H24.5V18.375L24.5525 18.368C26.4705 18.1287 28.2351 17.197 29.5145 15.7481C30.7939 14.2992 31.4999 12.4329 31.5 10.5H38.5L37.9015 13.4942C37.543 15.2864 36.78 16.973 35.6706 18.4254C34.5612 19.8778 33.1347 21.0577 31.5 21.875C33.0896 22.4046 34.5076 23.3518 35.6055 24.6175C36.7034 25.8832 37.4408 27.4208 37.7405 29.0693L38.5 33.25H31.5C31.4999 31.3171 30.7939 29.4508 29.5145 28.0019C28.2351 26.553 26.4705 25.6213 24.5525 25.382V33.257L24.5 33.25Z" stroke="white" stroke-width="3" stroke-linecap="round" stroke-linejoin="round"/>
</svg>
