<svg width="42" height="42" viewBox="0 0 42 42" fill="none" xmlns="http://www.w3.org/2000/svg">
<g clip-path="url(#clip0_113_5)">
<path d="M21 0.519745C9.39881 0.519745 0 9.92643 0 21.5197C0 30.8031 6.0165 38.6715 14.3548 41.4474C15.4088 41.6456 15.7894 40.9959 15.7894 40.4342C15.7894 39.9354 15.7776 38.6164 15.7697 36.8655C9.92513 38.1307 8.694 34.0423 8.694 34.0423C7.73719 31.6221 6.35644 30.9724 6.35644 30.9724C4.45594 29.6743 6.50738 29.7019 6.50738 29.7019C8.61263 29.8449 9.72038 31.8609 9.72038 31.8609C11.5933 35.0739 14.6344 34.1447 15.8379 33.6039C16.0217 32.2507 16.569 31.3202 17.1649 30.8017C12.5029 30.2754 7.60069 28.4707 7.60069 20.4238C7.60069 18.1256 8.41444 16.254 9.75975 14.784C9.52744 14.2577 8.81606 12.1183 9.94481 9.22556C9.94481 9.22556 11.7023 8.66512 15.7198 11.3794C17.4312 10.9139 19.1963 10.6752 20.9698 10.6693C22.7548 10.6811 24.5385 10.9147 26.2198 11.3794C30.2137 8.66512 31.9699 9.22556 31.9699 9.22556C33.0973 12.1183 32.3859 14.2564 32.1812 14.784C33.5134 16.254 34.3271 18.1269 34.3271 20.4238C34.3271 28.4891 29.4184 30.2676 24.7511 30.7807C25.4809 31.4094 26.1647 32.7022 26.1647 34.6644C26.1647 37.4732 26.1384 39.7359 26.1384 40.4197C26.1384 40.9657 26.5059 41.622 27.5874 41.4107C35.9874 38.6636 41.9974 30.7886 41.9974 21.5184C41.9974 9.92512 32.5986 0.518433 20.9974 0.518433L21 0.519745Z" fill="white"/>
</g>
<defs>
<clipPath id="clip0_113_5">
<rect width="42" height="42" fill="white"/>
</clipPath>
</defs>
</svg>
