<svg width="161" height="161" viewBox="0 0 161 161" fill="none" xmlns="http://www.w3.org/2000/svg">
<path d="M29.6945 136.855L18.3943 10.0625H142.606L131.291 136.835L80.4246 150.938L29.6945 136.855Z" fill="#1572B6"/>
<path d="M80.5 140.161L121.605 128.765L131.275 20.4319H80.5V140.161Z" fill="#33A9DC"/>
<path d="M80.5 66.3672H101.078L102.497 50.4433H80.5V34.8917H80.5553H119.492L119.12 39.0626L115.301 81.9188H80.5V66.3672Z" fill="white"/>
<path d="M80.5956 106.753L80.5252 106.773L63.2076 102.094L62.1007 89.6921H53.6835H46.4888L48.6673 114.109L80.5201 122.954L80.5956 122.934V106.753Z" fill="#EBEBEB"/>
<path d="M99.7546 81.2598L97.883 102.084L80.5403 106.763V122.944L112.418 114.109L112.655 111.482L115.357 81.2598H99.7546Z" fill="white"/>
<path d="M80.5554 34.8917V44.5517V50.4031V50.4433H43.0424H42.992L42.6801 46.9466L41.9707 39.0626L41.5984 34.8917H80.5554Z" fill="#EBEBEB"/>
<path d="M80.5001 66.3672V76.0272V81.8785V81.9188H63.4492H63.3989L63.0869 78.4221L62.3826 70.5381L62.0103 66.3672H80.5001Z" fill="#EBEBEB"/>
</svg>
