<svg width="161" height="161" viewBox="0 0 161 161" fill="none" xmlns="http://www.w3.org/2000/svg">
<path d="M160.953 0H0.047168C0.0211178 0 0 0.0211178 0 0.047168V160.953C0 160.979 0.0211178 161 0.047168 161H160.953C160.979 161 161 160.979 161 160.953V0.047168C161 0.0211178 160.979 0 160.953 0Z" fill="#F7DF1E"/>
<path d="M101.883 116.348C105.027 121.693 109.43 125.467 116.662 125.467C122.951 125.467 127.039 122.322 127.039 117.92C127.039 112.889 122.951 111.002 116.033 107.857L112.26 106.285C101.254 101.568 94.0215 95.9082 94.0215 83.6445C94.0215 72.3242 102.512 63.5195 116.033 63.5195C125.781 63.5195 132.699 66.9785 137.416 75.7832L125.781 83.3301C123.266 78.6133 120.436 76.7266 116.033 76.7266C111.631 76.7266 108.801 79.5566 108.801 83.3301C108.801 87.7324 111.631 89.6191 118.234 92.4492L122.008 94.0215C134.9 99.6816 142.133 105.027 142.133 117.92C142.133 131.441 131.441 138.988 116.977 138.988C102.826 138.988 93.707 132.385 89.3047 123.58L101.883 116.348ZM48.4258 117.605C50.9414 121.693 52.8281 125.467 58.1738 125.467C63.2051 125.467 66.3496 123.58 66.3496 116.033V63.834H81.4434V115.404C81.4434 131.127 72.3242 138.045 58.8027 138.045C46.5391 138.045 39.6211 131.756 36.1621 124.209L48.4258 117.605Z" fill="black"/>
</svg>
