<svg width="161" height="161" viewBox="0 0 161 161" fill="none" xmlns="http://www.w3.org/2000/svg">
<path d="M148.281 74.2261L86.774 12.7191C85.9326 11.8748 84.9329 11.2049 83.8321 10.7478C82.7313 10.2907 81.5511 10.0554 80.3592 10.0554C79.1672 10.0554 77.987 10.2907 76.8862 10.7478C75.7854 11.2049 74.7857 11.8748 73.9443 12.7191L61.17 25.4934L77.3706 41.694C79.281 41.0439 81.3356 40.9435 83.3003 41.4042C85.265 41.8649 87.0608 42.8683 88.483 44.3C89.9052 45.7316 90.8966 47.534 91.3444 49.5017C91.7921 51.4694 91.6781 53.5233 91.0153 55.4293L106.612 71.0262C108.944 70.2253 111.479 70.2475 113.796 71.089C116.113 71.9305 118.072 73.5406 119.346 75.651C120.62 77.7613 121.132 80.2445 120.797 82.6868C120.463 85.1291 119.301 87.383 117.507 89.0729C115.712 90.7628 113.393 91.7867 110.935 91.974C108.477 92.1614 106.029 91.5007 103.999 90.1023C101.969 88.7038 100.479 86.652 99.7782 84.2886C99.0774 81.9252 99.2076 79.3931 100.147 77.114L85.5816 62.5486V100.872C87.788 101.965 89.5533 103.781 90.5834 106.018C91.6135 108.254 91.8462 110.776 91.2428 113.163C90.6394 115.551 89.2362 117.659 87.2671 119.138C85.298 120.616 82.8818 121.375 80.4209 121.289C77.9601 121.202 75.6031 120.275 73.7427 118.662C71.8822 117.049 70.6306 114.847 70.1963 112.424C69.762 110 70.1712 107.5 71.3557 105.342C72.5403 103.183 74.4287 101.495 76.7065 100.56V61.8844C75.3887 61.3438 74.191 60.5478 73.1823 59.5422C72.1735 58.5367 71.3737 57.3415 70.8289 56.0255C70.284 54.7095 70.005 53.2987 70.0078 51.8744C70.0105 50.4501 70.2951 49.0404 70.8451 47.7265L54.896 31.7674L12.719 73.9594C11.874 74.8009 11.2035 75.8009 10.7459 76.9022C10.2884 78.0035 10.0529 79.1843 10.0529 80.3768C10.0529 81.5693 10.2884 82.7501 10.7459 83.8514C11.2035 84.9526 11.874 85.9527 12.719 86.7942L74.2261 148.281C75.0674 149.125 76.0672 149.795 77.168 150.252C78.2688 150.709 79.449 150.945 80.6409 150.945C81.8328 150.945 83.013 150.709 84.1138 150.252C85.2146 149.795 86.2144 149.125 87.0557 148.281L148.281 87.0407C149.126 86.1992 149.797 85.1992 150.254 84.0979C150.712 82.9966 150.947 81.8159 150.947 80.6233C150.947 79.4308 150.712 78.25 150.254 77.1487C149.797 76.0475 149.126 75.0474 148.281 74.206" fill="#DD4C35"/>
<path d="M61.17 25.4933L77.3706 41.6939C79.281 41.0438 81.3356 40.9434 83.3003 41.4041C85.265 41.8648 87.0608 42.8682 88.483 44.2998C89.9052 45.7315 90.8967 47.5339 91.3444 49.5016C91.7921 51.4693 91.6781 53.5232 91.0153 55.4292L106.612 71.0261C108.944 70.2252 111.479 70.2473 113.796 71.0889C116.113 71.9304 118.072 73.5405 119.346 75.6509C120.62 77.7612 121.132 80.2444 120.797 82.6867C120.463 85.129 119.301 87.3828 117.507 89.0728C115.712 90.7627 113.393 91.7866 110.935 91.9739C108.477 92.1612 106.029 91.5006 103.999 90.1022C101.969 88.7037 100.479 86.6519 99.7782 84.2885C99.0774 81.9251 99.2076 79.393 100.147 77.1139L85.5816 62.5484V100.871C87.788 101.965 89.5533 103.781 90.5834 106.017C91.6135 108.254 91.8462 110.776 91.2428 113.163C90.6394 115.551 89.2362 117.659 87.2671 119.138C85.298 120.616 82.8818 121.375 80.4209 121.289C77.9601 121.202 75.6031 120.275 73.7427 118.662C71.8822 117.049 70.6306 114.847 70.1963 112.424C69.762 110 70.1712 107.5 71.3557 105.342C72.5403 103.183 74.4287 101.495 76.7065 100.56V61.8843C75.3887 61.3437 74.191 60.5477 73.1823 59.5421C72.1735 58.5366 71.3737 57.3414 70.8289 56.0254C70.284 54.7094 70.005 53.2986 70.0078 51.8743C70.0105 50.4499 70.2951 49.0402 70.8451 47.7264L54.896 31.7673" fill="white"/>
</svg>
