<svg width="161" height="161" viewBox="0 0 161 161" fill="none" xmlns="http://www.w3.org/2000/svg">
<path d="M29.6944 136.855L18.3892 10.0625H142.611L131.29 136.835L80.4245 150.938L29.6944 136.855Z" fill="#E44F26"/>
<path d="M80.5 140.161L121.605 128.765L131.275 20.4319H80.5V140.161Z" fill="#F1662A"/>
<path d="M80.5 67.454H59.9222L58.5034 51.5301H80.5V35.9785H80.4447H41.5078L41.8801 40.1545L45.6988 83.0056H80.5V67.454Z" fill="#EBEBEB"/>
<path d="M80.5 107.84L80.4296 107.86L63.112 103.186L62.0052 90.7839H53.5879H46.3932L48.5717 115.196L80.4296 124.04L80.5 124.02V107.84Z" fill="#EBEBEB"/>
<path d="M80.4447 67.454V83.0056H99.5936L97.7925 103.176L80.4447 107.855V124.035L112.328 115.196L112.559 112.569L116.212 71.6299L116.594 67.454H112.403H80.4447Z" fill="white"/>
<path d="M80.4447 35.9785V45.6385V51.4949V51.5301H117.958H118.008L118.32 48.0384L119.029 40.1545L119.402 35.9785H80.4447Z" fill="white"/>
</svg>
